<svg width="269" height="290" viewBox="0 0 269 290" fill="none" xmlns="http://www.w3.org/2000/svg">
<g clip-path="url(#clip0_1_67)">
<path d="M116.399 93.0443C116.197 91.0317 115.542 89.091 114.481 87.3681C113.42 85.6453 111.982 84.1852 110.275 83.0977C108.567 82.0102 106.635 81.3237 104.624 81.0897C102.613 80.8557 100.575 81.0803 98.6633 81.7468L99.6341 81.8457C95.2806 82.7157 91.4118 85.1846 88.7916 88.765C87.5118 90.5549 86.6321 92.5986 86.2121 94.7578C85.7922 96.917 85.8418 99.1411 86.3577 101.279C87.4579 105.526 90.7056 109.21 94.8626 110.624C97.1741 111.41 99.6554 111.506 102.096 111.589C103.68 111.643 105.294 111.691 106.821 111.267C108.785 110.659 110.512 109.456 111.763 107.825C113.002 106.2 113.988 104.397 114.687 102.478C115.87 99.4757 116.72 96.2548 116.399 93.0443Z" fill="#2F2E41"/>
<path d="M72.436 181.474C72.0208 180.889 71.739 180.22 71.6105 179.515C71.482 178.809 71.51 178.084 71.6924 177.39C71.8748 176.697 72.2072 176.052 72.6663 175.5C73.1253 174.949 73.6998 174.505 74.3492 174.199L87.9564 131.639L97.433 136.556L81.0778 176.845C81.5194 177.969 81.5329 179.216 81.1159 180.349C80.6988 181.483 79.8801 182.424 78.8149 182.994C77.7497 183.565 76.512 183.725 75.3363 183.445C74.1607 183.165 73.1287 182.464 72.436 181.474H72.436Z" fill="#FFB6B6"/>
<path d="M83.5526 137.524C83.4223 137.236 83.3558 136.923 83.3576 136.607C83.3594 136.291 83.4294 135.979 83.5629 135.693L88.2235 125.683C88.6833 124.133 89.7397 122.828 91.1612 122.054C92.5826 121.281 94.2531 121.102 95.8064 121.557C97.3598 122.011 98.6692 123.063 99.4477 124.48C100.226 125.898 100.41 127.566 99.9596 129.119L98.4018 140.085C98.3574 140.397 98.2459 140.697 98.075 140.963C97.9042 141.229 97.6779 141.455 97.4117 141.626C97.1454 141.797 96.8455 141.908 96.5322 141.953C96.219 141.997 95.8998 141.974 95.5964 141.884L84.9341 138.729C84.6306 138.639 84.3501 138.485 84.1117 138.277C83.8732 138.069 83.6825 137.812 83.5526 137.524V137.524Z" fill="#2F2E41"/>
<path d="M122.863 139.213C119.625 147.684 120.452 156.569 124.441 165.776H96.1874C97.323 159.225 96.8623 153.137 92.6558 148.136L122.863 139.213Z" fill="#FFB6B6"/>
<path d="M89.7967 123.647L98.1583 117.572L111.841 113.775L123.243 116.053L123.913 122.347C124.729 130.003 124.375 137.738 122.863 145.288V145.288L93.2174 152.122L90.1768 146.807C90.1768 146.807 83.3355 139.973 88.6565 132.379L89.7967 123.647Z" fill="#2F2E41"/>
<path d="M162.421 81.1561C162.608 81.8486 162.64 82.5735 162.516 83.2799C162.392 83.9862 162.114 84.6567 161.703 85.2442C161.291 85.8317 160.755 86.3219 160.134 86.6803C159.512 87.0387 158.819 87.2565 158.104 87.3184L130.578 122.534L123.394 114.641L152.71 82.5072C152.685 81.3001 153.105 80.1259 153.889 79.2072C154.673 78.2885 155.768 77.6891 156.965 77.5226C158.162 77.356 159.379 77.6339 160.384 78.3036C161.39 78.9733 162.115 79.9882 162.421 81.1561V81.1561Z" fill="#FFB6B6"/>
<path d="M136.75 118.537C136.773 118.852 136.727 119.169 136.615 119.464C136.504 119.76 136.33 120.029 136.106 120.251L128.262 128.028C127.293 129.323 125.849 130.182 124.248 130.416C122.646 130.65 121.017 130.24 119.717 129.275C118.418 128.311 117.554 126.871 117.315 125.272C117.077 123.672 117.483 122.044 118.445 120.743L123.709 110.996C123.859 110.718 124.068 110.475 124.32 110.285C124.573 110.094 124.863 109.96 125.172 109.892C125.481 109.824 125.801 109.824 126.111 109.89C126.42 109.957 126.711 110.089 126.965 110.278L135.872 116.929C136.126 117.118 136.335 117.36 136.487 117.637C136.639 117.915 136.728 118.221 136.75 118.537V118.537Z" fill="#2F2E41"/>
<path d="M89.8338 280.993H94.1632L96.2229 264.311H89.833L89.8338 280.993Z" fill="#FFB6B6"/>
<path d="M88.3676 278.86L95.2117 278.452V281.381L101.719 285.87C102.04 286.092 102.282 286.41 102.409 286.779C102.537 287.148 102.543 287.548 102.427 287.92C102.31 288.293 102.078 288.618 101.763 288.849C101.449 289.081 101.068 289.205 100.678 289.205H92.5297L91.1252 286.308L90.5768 289.205H87.5046L88.3676 278.86Z" fill="#2F2E41"/>
<path d="M120.441 280.993H124.771L126.831 264.311H120.441L120.441 280.993Z" fill="#FFB6B6"/>
<path d="M118.975 278.86L125.819 278.452V281.381L132.326 285.87C132.648 286.092 132.89 286.41 133.017 286.779C133.144 287.148 133.15 287.548 133.034 287.92C132.918 288.293 132.685 288.618 132.371 288.849C132.056 289.081 131.676 289.205 131.285 289.205H123.137L121.733 286.308L121.184 289.205H118.112L118.975 278.86Z" fill="#2F2E41"/>
<path d="M131.943 187.527V196.033L131.111 206.425C131.111 206.425 130.849 215.499 130.531 222.657C130.339 227.008 130.123 230.65 129.934 231.12C129.703 231.696 129.758 233.268 129.891 234.919C130.048 236.828 130.307 238.842 130.35 239.517C130.433 240.775 129.765 246.181 129.765 246.181C129.765 246.181 129.02 259.736 127.937 260.817C126.854 261.899 127.937 264.976 127.937 264.976C122.859 268.716 116.447 264.145 116.447 264.145C117.864 261.891 115.615 246.506 115.615 246.506C115.615 246.506 115.286 241.253 114.619 239.842C113.952 238.431 113.783 229.615 113.783 229.615V216.558C113.783 216.558 112.033 213.884 111.785 212.638C111.538 211.391 111.785 206.985 111.785 206.985L109.957 200.831L108.705 205.653C108.705 205.653 105.464 219.125 104.879 220.787C104.295 222.449 105.209 224.115 105.209 224.115C105.209 224.115 106.045 226.679 105.209 227.855C104.69 228.592 104.292 229.407 104.032 230.27C104.032 230.27 103.604 235.177 102.854 236.933C102.105 238.69 101.442 240.853 101.442 240.853C101.442 240.853 101.618 244.17 100.869 244.918C100.119 245.667 99.8721 249.411 99.8721 249.411C99.8721 249.411 100.037 253.648 99.0361 255.145C98.0356 256.643 98.0356 265.125 98.0356 265.125C96.3003 266.238 94.3004 266.87 92.2404 266.957C90.1804 267.045 88.1341 266.585 86.3105 265.623C86.3105 265.623 87.2994 264.698 86.5499 260.386C85.8005 256.074 87.0875 244.334 87.0875 244.334C87.0875 244.334 86.9227 241.355 87.7545 240.022C88.5864 238.69 87.3347 236.114 87.6683 234.95C88.0018 233.786 89.0024 227.463 89.0024 227.463C89.0024 227.463 88.5864 211.913 88.5864 211.082C88.488 209.602 88.0874 208.159 87.4092 206.84C86.6598 205.512 87.4092 195.865 87.4092 195.865C87.4092 195.865 89.175 190.879 88.5864 189.797C87.9978 188.715 88.9788 186.802 88.9788 186.802C88.9788 186.802 88.0645 184.556 88.9788 184.14C89.8932 183.725 90.062 182.063 90.062 182.063L90.6975 173.996C90.6975 173.996 90.937 170.334 91.6983 170.17C92.4595 170.005 92.1259 168.594 92.8755 167.594C93.2407 166.919 93.4925 166.188 93.621 165.431C93.727 164.968 93.8251 164.486 93.9075 164.023C94.1429 162.769 94.2882 161.687 94.2882 161.687C99.2011 165.764 125.033 162.906 125.061 162.906C126.701 163.263 128.651 168.951 130.06 173.909C131.312 178.34 131.946 182.923 131.943 187.527Z" fill="#2F2E41"/>
<path d="M113.154 103.072C115.037 96.8842 111.542 90.3436 105.348 88.4627C99.1543 86.5818 92.6068 90.0728 90.7239 96.2601C88.841 102.447 92.3357 108.988 98.5296 110.869C104.724 112.75 111.271 109.259 113.154 103.072Z" fill="#FFB6B6"/>
<path d="M88.6898 101.707L93.2288 100.763L94.0645 94.7459L95.6316 100.264L97.8011 99.8127L98.2886 96.3027L99.2028 99.5214L115.323 96.1707C114.991 94.5771 114.348 93.0643 113.431 91.7189C112.513 90.3734 111.34 89.2216 109.977 88.3292C108.614 87.4368 107.089 86.8213 105.488 86.5178C103.887 86.2143 102.242 86.2288 100.647 86.5604L98.3103 87.046C95.0884 87.7157 92.2647 89.6365 90.4605 92.3859C88.6563 95.1353 88.0194 98.4881 88.6898 101.707V101.707Z" fill="#2F2E41"/>
<path d="M135.125 13.6605L135.096 13.7177C129.176 10.9933 122.434 10.6482 116.266 12.7537C110.099 14.8593 104.978 19.2542 101.966 25.028C98.9535 30.8018 98.2799 37.5119 100.085 43.7682C101.89 50.0245 106.035 55.3474 111.661 58.6343L111.631 58.6915L156.71 82.1609L180.204 37.1299C181.751 34.1728 182.698 30.9402 182.994 27.6169C183.289 24.2936 182.925 20.9448 181.924 17.7619C180.923 14.5791 179.303 11.6245 177.159 9.06714C175.014 6.5098 172.385 4.39983 169.423 2.85784C166.462 1.31586 163.225 0.372095 159.898 0.0805081C156.57 -0.211078 153.218 0.155226 150.033 1.15848C146.848 2.16174 143.892 3.78228 141.334 5.92746C138.776 8.07264 136.666 10.7004 135.125 13.6605V13.6605Z" fill="#00FF66"/>
<path d="M175.288 272.062L175.28 272.077C173.784 271.388 172.08 271.301 170.521 271.833C168.962 272.365 167.668 273.476 166.906 274.935C166.145 276.395 165.975 278.091 166.431 279.672C166.887 281.253 167.935 282.599 169.357 283.429L169.349 283.444L180.743 289.376L186.681 277.994C187.072 277.247 187.312 276.43 187.386 275.59C187.461 274.75 187.369 273.903 187.116 273.099C186.863 272.294 186.454 271.547 185.912 270.901C185.37 270.254 184.705 269.721 183.957 269.331C183.208 268.942 182.39 268.703 181.549 268.629C180.708 268.556 179.861 268.648 179.055 268.902C178.25 269.156 177.503 269.565 176.857 270.108C176.21 270.65 175.677 271.314 175.288 272.062V272.062Z" fill="#FF6584"/>
<path d="M24.1461 127.749V127.814C17.636 128.131 11.4976 130.938 7.00249 135.652C2.50739 140.367 0.000119044 146.628 0.00012207 153.139C0.000125097 159.65 2.50741 165.911 7.00252 170.626C11.4976 175.341 17.636 178.148 24.1461 178.465V178.529L74.9799 178.529L74.9798 127.749C74.9831 124.413 74.328 121.109 73.0521 118.025C71.7762 114.942 69.9046 112.14 67.5441 109.78C65.1836 107.42 62.3805 105.547 59.2952 104.27C56.2099 102.992 52.9028 102.335 49.563 102.335C46.2231 102.335 42.916 102.992 39.8307 104.27C36.7454 105.547 33.9423 107.42 31.5819 109.78C29.2214 112.14 27.3497 114.942 26.0738 118.025C24.7979 121.109 24.1429 124.413 24.1461 127.749V127.749Z" fill="#00FF66"/>
<path d="M129.71 22.9793C126.36 19.8031 121.072 19.8114 117.203 22.0225C112.862 24.5037 110.894 29.6309 110.994 34.445C111.106 39.8631 113.758 44.769 117.182 48.8322C120.831 53.0541 125.078 56.7212 129.788 59.7175C134.485 62.7732 139.568 65.1925 144.902 66.9122C145.558 67.1237 146.218 67.3241 146.882 67.5134C147.03 67.5488 147.187 67.5252 147.318 67.4476C147.45 67.37 147.546 67.2444 147.586 67.0974C147.627 66.9503 147.609 66.7933 147.536 66.6594C147.463 66.5254 147.34 66.4251 147.195 66.3794C136.951 63.4553 127.637 57.9352 120.158 50.3551C116.598 46.7125 113.434 42.3346 112.461 37.2392C111.602 32.7392 112.551 27.5144 116.043 24.3091C119.437 21.1932 125.377 20.4916 128.877 23.8108C129.427 24.3318 130.261 23.5016 129.71 22.9793V22.9793Z" fill="white"/>
<path d="M23.2756 140.119C18.7513 139.557 14.5024 142.736 12.7402 146.751C10.7641 151.254 12.0964 156.444 14.9628 160.25C18.1196 164.441 22.9013 166.884 27.8996 168.18C33.2649 169.572 38.9605 169.948 44.4836 169.691C51.0125 169.389 57.4555 168.081 63.5845 165.813C64.2885 165.551 63.9839 164.414 63.2715 164.679C53.0687 168.463 41.7106 169.657 30.9816 167.659C26.1857 166.766 21.3014 165.062 17.7276 161.615C14.4894 158.492 12.1986 153.762 13.1731 149.194C14.1415 144.656 18.4615 140.697 23.2756 141.295C24.0256 141.388 24.0188 140.212 23.2756 140.119V140.119Z" fill="white"/>
<path d="M98.5464 82.5164C99.6407 78.1466 97.5212 73.4595 94.2394 70.3704C90.9577 67.2812 86.6752 65.5059 82.4367 63.9687C79.0567 62.7428 75.0976 61.6766 72.0384 63.5646C69.5803 65.0817 68.514 68.0286 67.1088 70.5506C64.431 75.3567 60.1108 79.0392 54.9383 80.9247C49.7658 82.8102 44.0867 82.7726 38.9396 80.819C40.7538 86.0801 47.0028 88.6534 52.5617 88.2961C58.1206 87.9387 63.2549 85.3814 68.4332 83.3308C73.6115 81.2801 79.3718 79.6957 84.694 81.338C86.9403 82.0311 88.9833 83.2682 91.2075 84.0294C93.4316 84.7907 96.0344 85.0174 98.0165 83.7544" fill="#2F2E41"/>
<path d="M176.405 242.561L172.615 235.898C172.534 235.769 172.405 235.677 172.257 235.641C172.109 235.605 171.952 235.628 171.82 235.705C171.688 235.782 171.591 235.907 171.55 236.054C171.509 236.2 171.526 236.358 171.599 236.492L175.388 243.155C175.47 243.284 175.598 243.376 175.747 243.412C175.895 243.448 176.052 243.426 176.184 243.349C176.315 243.272 176.412 243.146 176.453 242.999C176.495 242.853 176.477 242.695 176.405 242.561V242.561Z" fill="#F0F0F0"/>
</g>
<defs>
<clipPath id="clip0_1_67">
<rect width="269" height="290" fill="white"/>
</clipPath>
</defs>
</svg>
