<svg width="430" height="233" viewBox="0 0 430 233" fill="none" xmlns="http://www.w3.org/2000/svg">
<g clip-path="url(#clip0_1_32)">
<path d="M233.34 123.255V123.761C233.339 128.408 231.493 132.865 228.209 136.15C224.925 139.436 220.472 141.281 215.828 141.28H18.1727C13.53 141.28 9.07755 139.434 5.79466 136.148C2.51177 132.863 0.667266 128.408 0.666824 123.761V123.255H233.34Z" fill="#F2F2F2"/>
<path d="M42.0066 39.8594C27.7229 43.3898 14.9003 32.3926 12.6615 22.1905L13.6559 22.0126C25.6951 19.3495 39.1343 27.9615 42.0066 39.8594Z" fill="#00FF66"/>
<path d="M373.616 166.263C373.146 166.264 372.692 166.095 372.337 165.787C364.191 160.479 356.941 153.909 350.857 146.323C350.485 145.97 350.266 145.485 350.247 144.972C350.227 144.458 350.409 143.958 350.754 143.578L354.752 139.159L355.576 139.905L351.577 144.324C351.425 144.492 351.346 144.713 351.358 144.94C351.369 145.166 351.469 145.378 351.637 145.53L351.695 145.592C357.719 153.11 364.901 159.62 372.973 164.874L373.045 164.93C373.213 165.082 373.434 165.161 373.66 165.15C373.886 165.139 374.099 165.038 374.251 164.87L382.052 156.248C382.197 156.088 382.276 155.878 382.273 155.662C382.27 155.446 382.184 155.239 382.034 155.083C380.227 154.097 378.463 153.023 376.79 151.888L377.414 150.968C379.076 152.096 380.832 153.164 382.631 154.142L382.738 154.218C382.929 154.391 383.085 154.601 383.195 154.834C383.306 155.067 383.369 155.32 383.382 155.578C383.394 155.836 383.356 156.094 383.27 156.337C383.183 156.58 383.049 156.803 382.876 156.995L375.074 165.617C374.901 165.809 374.692 165.964 374.459 166.075C374.226 166.185 373.973 166.248 373.715 166.26C373.682 166.262 373.649 166.263 373.616 166.263Z" fill="#3F3D56"/>
<path d="M365.015 151.748C367.466 153.967 369.982 155.184 370.638 154.462C370.723 154.339 370.777 154.197 370.795 154.049C370.812 153.9 370.792 153.75 370.738 153.611C370.472 152.793 370.047 152.035 369.488 151.381C367.31 149.83 365.193 148.157 363.138 146.361C362.493 146.15 361.999 146.155 361.76 146.422C361.726 146.46 361.698 146.503 361.677 146.55C361.265 147.39 362.693 149.641 365.015 151.748Z" fill="#00FF66"/>
<path d="M350.248 133.874C350.269 134.38 350.489 134.858 350.86 135.203C354.151 139.273 357.769 143.068 361.677 146.55C364.536 149.103 367.564 151.462 370.738 153.611C371.266 153.972 371.799 154.322 372.338 154.667C372.691 154.977 373.146 155.147 373.616 155.145C373.649 155.145 373.682 155.14 373.716 155.14C373.974 155.128 374.227 155.065 374.461 154.954C374.695 154.843 374.904 154.687 375.077 154.495L382.877 145.877C383.227 145.49 383.409 144.98 383.383 144.459C383.357 143.937 383.125 143.448 382.738 143.097L382.633 143.02C374.117 138.416 366.838 131.823 361.415 123.8L361.332 123.699C360.945 123.349 360.435 123.168 359.914 123.194C359.393 123.22 358.904 123.452 358.554 123.838L350.754 132.456C350.58 132.647 350.447 132.871 350.36 133.114C350.273 133.358 350.235 133.616 350.248 133.874V133.874ZM351.359 133.818C351.354 133.707 351.37 133.596 351.407 133.491C351.444 133.386 351.502 133.289 351.576 133.207L359.376 124.583C359.452 124.5 359.543 124.432 359.646 124.384C359.748 124.337 359.858 124.31 359.971 124.305C360.175 124.293 360.377 124.356 360.537 124.483C366.04 132.606 373.412 139.287 382.032 143.965C382.182 144.12 382.268 144.326 382.272 144.541C382.276 144.757 382.199 144.966 382.055 145.127L374.249 153.75C374.175 153.834 374.084 153.902 373.983 153.95C373.882 153.997 373.772 154.024 373.66 154.028C373.434 154.039 373.213 153.961 373.043 153.811L372.971 153.755C371.793 152.999 370.632 152.208 369.488 151.381C367.31 149.83 365.193 148.157 363.138 146.361C358.986 142.737 355.157 138.76 351.693 134.474L351.637 134.413C351.471 134.259 351.371 134.045 351.359 133.818V133.818Z" fill="#3F3D56"/>
<path d="M370.637 143.344C371.29 142.623 369.832 140.237 367.381 138.016C364.93 135.795 362.414 134.579 361.761 135.3C361.108 136.022 362.566 138.407 365.017 140.628C367.468 142.85 369.985 144.066 370.637 143.344Z" fill="#00FF66"/>
<path d="M321.622 226.031L314.811 226.031L311.57 199.74L321.623 199.74L321.622 226.031Z" fill="#FFB8B8"/>
<path d="M323.359 232.638L301.397 232.638V232.36C301.397 231.236 301.618 230.124 302.048 229.086C302.477 228.048 303.107 227.105 303.901 226.311C304.695 225.516 305.637 224.886 306.674 224.456C307.711 224.027 308.823 223.805 309.945 223.805H309.946L323.359 223.806L323.359 232.638Z" fill="#2F2E41"/>
<path d="M341.622 226.031L334.812 226.031L331.571 199.74L341.624 199.74L341.622 226.031Z" fill="#FFB8B8"/>
<path d="M343.36 232.638L321.398 232.638V232.36C321.398 231.236 321.619 230.124 322.048 229.086C322.478 228.048 323.108 227.105 323.901 226.311C324.695 225.516 325.637 224.886 326.675 224.456C327.712 224.027 328.823 223.805 329.946 223.805H329.946L343.36 223.806L343.36 232.638Z" fill="#2F2E41"/>
<path d="M346.194 119.78L344.567 216.35C344.562 216.655 344.494 216.957 344.367 217.235C344.24 217.513 344.057 217.762 343.83 217.967C343.603 218.171 343.335 218.326 343.045 218.423C342.755 218.519 342.448 218.555 342.144 218.527L334.174 217.802C333.651 217.754 333.162 217.523 332.793 217.149C332.424 216.775 332.2 216.283 332.159 215.759L327.493 155.522C327.482 155.38 327.418 155.248 327.313 155.153C327.208 155.058 327.07 155.006 326.928 155.009C326.787 155.012 326.651 155.069 326.55 155.168C326.449 155.267 326.389 155.402 326.384 155.544L324.052 217.16C324.03 217.735 323.787 218.279 323.373 218.678C322.958 219.077 322.406 219.3 321.831 219.3H313.283C312.717 219.3 312.173 219.084 311.761 218.695C311.348 218.307 311.1 217.777 311.065 217.211L305.081 119.224L340.638 110.329L346.194 119.78Z" fill="#2F2E41"/>
<path d="M320.403 29.1028C327.94 29.1028 334.049 22.9892 334.049 15.4476C334.049 7.90594 327.94 1.79226 320.403 1.79226C312.867 1.79226 306.758 7.90594 306.758 15.4476C306.758 22.9892 312.867 29.1028 320.403 29.1028Z" fill="#FFB8B8"/>
<path d="M303.864 122.653C303.628 122.424 303.439 122.151 303.309 121.849C303.179 121.547 303.11 121.222 303.106 120.893L302.185 55.0424C302.13 51.6926 303.137 48.4115 305.062 45.6703C306.987 42.9291 309.73 40.8689 312.898 39.7857C314.176 33.9816 320.98 33.2546 324.947 33.3415C325.937 33.3628 326.907 33.6227 327.775 34.0992C328.644 34.5756 329.384 35.2546 329.934 36.0785L332.778 40.3466L339.045 44.0228C341.945 45.7169 344.233 48.2891 345.578 51.3685C346.923 54.4478 347.256 57.8751 346.528 61.156L345.564 65.5478C342.166 81.0925 342.489 97.2208 346.507 112.617L348.448 120.025C348.55 120.41 348.557 120.815 348.47 121.204C348.383 121.593 348.205 121.956 347.949 122.262C347.694 122.569 347.369 122.809 347.002 122.964C346.635 123.119 346.236 123.184 345.838 123.154L343.583 122.98C342.998 122.935 342.447 122.686 342.027 122.276C341.607 121.865 341.345 121.319 341.288 120.735L340.914 117C340.908 116.932 340.875 116.868 340.824 116.822C340.773 116.776 340.707 116.75 340.638 116.75C340.569 116.75 340.503 116.776 340.452 116.822C340.4 116.868 340.368 116.932 340.362 117L340 120.616C339.939 121.227 339.656 121.794 339.204 122.209C338.753 122.624 338.164 122.859 337.551 122.869L305.644 123.36C305.631 123.36 305.618 123.36 305.604 123.36C304.954 123.362 304.329 123.108 303.864 122.653Z" fill="#3F3D56"/>
<path d="M321.471 23.3187C321.527 25.2491 322.866 26.3658 324.51 27.3769C326.154 28.388 328.076 28.8264 329.959 29.2493C330.212 29.3837 330.495 29.4506 330.781 29.4436C331.068 29.4366 331.347 29.3558 331.593 29.2092C331.839 29.0625 332.043 28.8549 332.186 28.6063C332.328 28.3578 332.404 28.0766 332.406 27.7901L334.133 21.2167C334.744 19.1169 335.189 16.9722 335.463 14.8024C335.879 10.6275 334.89 6.13643 331.978 3.11789C329.066 0.0993541 324.016 -0.972933 320.527 1.3528C316.386 -3.93995 297.458 7.75372 302.127 11.4342C302.958 12.0889 304.227 11.2604 305.282 11.1801C306.336 11.0998 307.518 11.2854 308.187 12.1043C309.062 13.1741 308.681 14.7677 309.042 16.1022C309.191 16.5718 309.432 17.0071 309.75 17.3832C310.068 17.7593 310.457 18.0686 310.895 18.2934C311.334 18.5181 311.812 18.6538 312.303 18.6927C312.793 18.7315 313.287 18.6728 313.755 18.5198C314.627 18.0899 315.447 17.5623 316.2 16.9471C317.008 16.4081 318.03 16.0098 318.941 16.3498C320.141 16.7979 320.567 18.2681 320.675 19.5452C320.858 20.8191 321.124 22.0795 321.471 23.3187Z" fill="#2F2E41"/>
<path opacity="0.2" d="M318.284 59.9162L316.062 87.1589L304.395 115.514L321.617 87.7149L318.284 59.9162Z" fill="black"/>
<path d="M301.667 126.073C302.304 125.561 302.821 124.916 303.181 124.183C303.542 123.449 303.738 122.646 303.754 121.829C303.771 121.011 303.609 120.201 303.279 119.453C302.948 118.705 302.458 118.039 301.843 117.502L309.276 99.0792L299.163 101.123L293.655 118.304C292.821 119.398 292.418 120.761 292.52 122.133C292.623 123.505 293.225 124.792 294.213 125.749C295.2 126.707 296.505 127.269 297.878 127.328C299.252 127.388 300.6 126.941 301.667 126.073V126.073Z" fill="#FFB8B8"/>
<path d="M301.125 117.948L295.401 115.883C294.811 115.667 294.324 115.238 294.034 114.681C293.745 114.123 293.675 113.477 293.837 112.87L303.28 78.2777L304.72 47.0139C304.763 46.0702 304.994 45.1446 305.398 44.2909C305.802 43.4371 306.372 42.6723 307.074 42.0408C307.776 41.4093 308.596 40.9239 309.488 40.6126C310.379 40.3013 311.323 40.1704 312.265 40.2276C313.207 40.2848 314.129 40.5288 314.976 40.9456C315.823 41.3623 316.579 41.9434 317.2 42.6552C317.821 43.3669 318.294 44.195 318.592 45.0913C318.89 45.9877 319.007 46.9344 318.936 47.8763L316.365 82.1095L304.332 116.423C304.15 116.942 303.802 117.386 303.343 117.687C302.883 117.988 302.338 118.13 301.79 118.091C301.563 118.074 301.339 118.025 301.125 117.948V117.948Z" fill="#3F3D56"/>
<path d="M360.119 127.88C360.51 127.162 360.738 126.367 360.789 125.551C360.839 124.736 360.711 123.919 360.411 123.158C360.112 122.398 359.65 121.712 359.058 121.149C358.465 120.587 357.757 120.161 356.982 119.902L356.748 100.036L348.203 105.821L349.735 123.8C349.387 125.131 349.539 126.544 350.162 127.77C350.785 128.997 351.836 129.952 353.116 130.455C354.396 130.958 355.816 130.974 357.106 130.499C358.397 130.024 359.469 129.092 360.119 127.88L360.119 127.88Z" fill="#FFB8B8"/>
<path d="M356.491 120.591L350.414 120.893C349.787 120.921 349.172 120.713 348.69 120.31C348.208 119.907 347.894 119.338 347.811 118.715L343.207 83.1523L332.499 53.747C332.175 52.8594 332.032 51.9165 332.076 50.9729C332.12 50.0293 332.351 49.1039 332.756 48.2505C333.161 47.3971 333.731 46.6328 334.434 46.0019C335.136 45.371 335.957 44.8863 336.849 44.5757C337.74 44.2652 338.684 44.1351 339.627 44.193C340.569 44.251 341.49 44.4958 342.337 44.9132C343.184 45.3306 343.939 45.9123 344.559 46.6245C345.179 47.3367 345.652 48.1652 345.949 49.0617L356.756 81.6435L358.864 117.947C358.895 118.496 358.745 119.04 358.437 119.495C358.129 119.95 357.68 120.292 357.16 120.466C356.943 120.538 356.719 120.58 356.491 120.591V120.591Z" fill="#3F3D56"/>
<path d="M179.571 112.887C176.38 112.887 173.842 111.937 172.028 110.064C167.927 105.83 168.184 97.6693 168.39 91.1119C168.45 89.2042 168.507 87.4022 168.449 85.8928L168.449 85.87C168.464 82.9209 169.64 80.0967 171.724 78.0108C173.807 75.9249 176.628 74.7459 179.575 74.7299H206.029C209.216 74.7299 211.751 75.6782 213.564 77.5489C217.665 81.7792 217.411 89.938 217.207 96.4938C217.148 98.4055 217.091 100.211 217.15 101.723C217.139 104.677 215.964 107.507 213.879 109.597C211.795 111.688 208.969 112.87 206.018 112.887H179.571ZM169.56 85.8621C169.618 87.4076 169.561 89.2241 169.5 91.1469C169.301 97.4944 169.052 105.394 172.825 109.29C174.445 110.962 176.652 111.775 179.57 111.775H206.016C208.671 111.761 211.212 110.699 213.089 108.821C214.965 106.943 216.025 104.399 216.039 101.743C215.979 100.215 216.036 98.3908 216.097 96.459C216.294 90.1131 216.54 82.2152 212.767 78.3231C211.148 76.6535 208.944 75.8418 206.029 75.8418H179.577C176.926 75.8567 174.387 76.917 172.512 78.7929C170.637 80.6687 169.576 83.2088 169.56 85.8621V85.8621Z" fill="#3F3D56"/>
<path d="M36.1621 40.8825C31.5235 40.8544 26.9859 39.5244 23.0651 37.0436C17.3212 33.4719 12.9842 27.7514 11.7467 22.1154L11.6226 21.5505L13.1748 21.2725C25.3936 18.5738 39.2137 27.2704 42.1744 39.5287L42.3042 40.0662L41.7678 40.199C39.9338 40.6532 38.0515 40.8827 36.1621 40.8825ZM12.9663 22.4396C14.2995 27.6097 18.3459 32.7997 23.6516 36.0992C28.7815 39.3846 34.9981 40.5157 40.9553 39.2475C37.8577 27.8269 24.8868 19.8128 13.4039 22.3609L12.9663 22.4396Z" fill="#3F3D56"/>
<path d="M20.7493 104.065C17.1144 104.065 14.1613 102.437 12.4276 99.4675C11.4558 97.74 10.945 95.7911 10.9444 93.8087C10.9438 91.8263 11.4534 89.8771 12.424 88.149C14.1855 85.1289 17.209 83.4906 20.943 83.5478H56.1905C59.9119 83.5003 62.9376 85.1313 64.7001 88.155C65.6709 89.8827 66.1807 91.8314 66.1806 93.8135C66.1804 95.7956 65.6702 97.7443 64.6991 99.4718C62.9373 102.488 59.9124 104.1 56.1821 104.063H20.934C20.8722 104.064 20.8106 104.064 20.7493 104.065ZM20.7699 84.6584C17.5283 84.6584 14.9098 86.0929 13.3837 88.7096C12.5092 90.2665 12.0502 92.0225 12.0507 93.8084C12.0513 95.5944 12.5115 97.3501 13.387 98.9064C14.9388 101.565 17.611 103.003 20.9257 102.951H56.1905C59.5086 103.004 62.189 101.566 63.7398 98.9107C64.6146 97.3543 65.0741 95.5988 65.0743 93.8131C65.0744 92.0274 64.615 90.2718 63.7404 88.7153C62.1886 86.0532 59.5077 84.6199 56.1984 84.6598H20.9313C20.8775 84.659 20.8234 84.6584 20.7699 84.6584H20.7699Z" fill="#3F3D56"/>
<path d="M188.616 87.9511H177.505C176.768 87.9511 176.061 87.6583 175.54 87.1369C175.02 86.6156 174.727 85.9085 174.727 85.1713C174.727 84.434 175.02 83.7269 175.54 83.2056C176.061 82.6843 176.768 82.3914 177.505 82.3914H188.616C189.353 82.3914 190.059 82.6843 190.58 83.2056C191.101 83.7269 191.394 84.434 191.394 85.1713C191.394 85.9085 191.101 86.6156 190.58 87.1369C190.059 87.6583 189.353 87.9511 188.616 87.9511Z" fill="#00FF66"/>
<path d="M188.616 96.8467H177.505C176.768 96.8467 176.061 96.5538 175.54 96.0325C175.02 95.5112 174.727 94.8041 174.727 94.0668C174.727 93.3296 175.02 92.6225 175.54 92.1012C176.061 91.5798 176.768 91.287 177.505 91.287H188.616C189.353 91.287 190.059 91.5798 190.58 92.1012C191.101 92.6225 191.394 93.3296 191.394 94.0668C191.394 94.8041 191.101 95.5112 190.58 96.0325C190.059 96.5538 189.353 96.8467 188.616 96.8467Z" fill="#00FF66"/>
<path d="M188.616 105.742H177.505C176.768 105.742 176.061 105.449 175.54 104.928C175.02 104.407 174.727 103.7 174.727 102.962C174.727 102.225 175.02 101.518 175.54 100.997C176.061 100.475 176.768 100.183 177.505 100.183H188.616C189.353 100.183 190.059 100.475 190.58 100.997C191.101 101.518 191.394 102.225 191.394 102.962C191.394 103.7 191.101 104.407 190.58 104.928C190.059 105.449 189.353 105.742 188.616 105.742Z" fill="#00FF66"/>
<path d="M208.061 87.9511H196.95C196.213 87.9511 195.506 87.6583 194.985 87.1369C194.464 86.6156 194.172 85.9085 194.172 85.1713C194.172 84.434 194.464 83.7269 194.985 83.2056C195.506 82.6843 196.213 82.3914 196.95 82.3914H208.061C208.798 82.3914 209.504 82.6843 210.025 83.2056C210.546 83.7269 210.839 84.434 210.839 85.1713C210.839 85.9085 210.546 86.6156 210.025 87.1369C209.504 87.6583 208.798 87.9511 208.061 87.9511Z" fill="#00FF66"/>
<path d="M208.061 96.8467H196.95C196.213 96.8467 195.506 96.5538 194.985 96.0325C194.464 95.5112 194.172 94.8041 194.172 94.0668C194.172 93.3296 194.464 92.6225 194.985 92.1012C195.506 91.5798 196.213 91.287 196.95 91.287H208.061C208.798 91.287 209.504 91.5798 210.025 92.1012C210.546 92.6225 210.839 93.3296 210.839 94.0668C210.839 94.8041 210.546 95.5112 210.025 96.0325C209.504 96.5538 208.798 96.8467 208.061 96.8467Z" fill="#00FF66"/>
<path d="M208.061 105.742H196.95C196.213 105.742 195.506 105.449 194.985 104.928C194.464 104.407 194.172 103.7 194.172 102.962C194.172 102.225 194.464 101.518 194.985 100.997C195.506 100.475 196.213 100.183 196.95 100.183H208.061C208.798 100.183 209.504 100.475 210.025 100.997C210.546 101.518 210.839 102.225 210.839 102.962C210.839 103.7 210.546 104.407 210.025 104.928C209.504 105.449 208.798 105.742 208.061 105.742Z" fill="#00FF66"/>
<path d="M233.34 48.4441H0.666794V49.5561H233.34V48.4441Z" fill="#3F3D56"/>
<path d="M215.006 141.603H18.3338C13.4731 141.597 8.81298 139.662 5.37592 136.223C1.93885 132.783 0.00549069 128.12 0 123.255V27.6279C0.00549069 22.7637 1.93885 18.1002 5.37592 14.6606C8.81298 11.221 13.4731 9.28628 18.3338 9.28078H215.006C219.866 9.28628 224.527 11.221 227.964 14.6606C231.401 18.1002 233.334 22.7637 233.34 27.6279V123.255C233.334 128.12 231.401 132.783 227.964 136.223C224.527 139.662 219.866 141.597 215.006 141.603V141.603ZM18.3338 10.3927C13.7677 10.3979 9.39003 12.2155 6.16127 15.4466C2.93252 18.6777 1.11633 23.0585 1.11114 27.6279V123.255C1.11633 127.825 2.93253 132.206 6.16128 135.437C9.39004 138.668 13.7677 140.485 18.3338 140.491H215.006C219.572 140.485 223.95 138.668 227.178 135.437C230.407 132.206 232.223 127.825 232.228 123.255V27.6279C232.223 23.0585 230.407 18.6776 227.178 15.4465C223.95 12.2154 219.572 10.3979 215.006 10.3927H18.3338Z" fill="#3F3D56"/>
</g>
<defs>
<clipPath id="clip0_1_32">
<rect width="430" height="233" fill="white"/>
</clipPath>
</defs>
</svg>
